# xmcd
#
# Track frame offsets: 
#        150
#        8676
#        19811
#        28264
#        42095
#        51628
#        62658
#        71538
#        83306
#        96379
#        108780
#        125211
#
# Disc length: 1813 seconds
#
# Revision: 0
# Processed by: cddbd v1.5.2PL0 Copyright (c) Steve Scherf et al.
# Submitted via: ExactAudioCopy v0.95b3
#
DISCID=9b07130c
DTITLE=Dave Clark Five  - Having a Wild Weekend  6-65  FLAC
DYEAR=1900
DGENRE=
TTITLE0=Having a Wild Weekend
TTITLE1=New Kind of Love
TTITLE2=Dum-Dee-Dee-Dum
TTITLE3=I Said I Was Sorry
TTITLE4=No Stopping
TTITLE5=Don't Be Taken In
TTITLE6=Catch Us If You Can
TTITLE7=When I'm Alone
TTITLE8=If You Come Back
TTITLE9=Sweet Memories
TTITLE10=Don't You Realize
TTITLE11=On the Move
EXTD=
EXTT0=
EXTT1=
EXTT2=
EXTT3=
EXTT4=
EXTT5=
EXTT6=
EXTT7=
EXTT8=
EXTT9=
EXTT10=
EXTT11=
PLAYORDER=
